<svg xmlns="http://www.w3.org/2000/svg" width="900" height="1020" viewBox="0 0 900 1020" font-family="'Lucida Grande', 'Lucida Sans Unicode', Geneva, Verdana, sans-serif" font-size="13">
  <!-- Page background -->
  <rect width="900" height="1020" fill="#f5f5f0"/>

  <!-- LuCI top nav bar -->
  <rect width="900" height="44" fill="#1a1a1a"/>
  <text x="16" y="27" fill="#fff" font-size="15" font-weight="bold">OpenWrt</text>
  <text x="120" y="27" fill="#aaa" font-size="12">Status</text>
  <text x="175" y="27" fill="#aaa" font-size="12">System</text>
  <text x="230" y="27" fill="#fff" font-size="12" font-weight="600">Network ▾</text>
  <text x="300" y="27" fill="#aaa" font-size="12">Services</text>
  <text x="360" y="27" fill="#aaa" font-size="12">Logout</text>

  <!-- Breadcrumb / tab bar -->
  <rect y="44" width="900" height="36" fill="#e8e8e8"/>
  <rect y="44" width="900" height="1" fill="#ccc"/>
  <text x="16" y="66" fill="#666" font-size="12">Network » Kids Network</text>
  <!-- Tabs -->
  <rect x="0" y="68" width="900" height="32" fill="#f0f0f0"/>
  <rect x="0" y="68" width="900" height="1" fill="#ddd"/>
  <rect x="10" y="68" width="110" height="32" fill="#fff" rx="3" ry="3"/>
  <rect x="10" y="97" width="110" height="3" fill="#fff"/>
  <text x="65" y="88" fill="#337ab7" font-size="12" font-weight="600" text-anchor="middle">Dashboard</text>
  <rect x="130" y="71" width="90" height="26" fill="none"/>
  <text x="175" y="88" fill="#888" font-size="12" text-anchor="middle">Setup Wizard</text>

  <!-- Main content area -->
  <rect x="0" y="100" width="900" height="920" fill="#f5f5f0"/>

  <!-- Page title -->
  <text x="16" y="130" fill="#333" font-size="18" font-weight="bold">Kids Network</text>

  <!-- Top section: master toggle + stat bar -->
  <rect x="10" y="138" width="880" height="136" fill="#fff" rx="3" stroke="#ddd" stroke-width="1"/>
  <!-- Master toggle row -->
  <text x="24" y="162" fill="#666" font-size="12">All settings for your children's WiFi — managed in one place.</text>
  <!-- Pill toggle ON -->
  <rect x="774" y="148" width="44" height="24" rx="12" fill="#5cb85c"/>
  <circle cx="800" cy="160" r="9" fill="#fff"/>
  <text x="824" y="165" fill="#333" font-size="12" font-weight="600">Kids WiFi Active</text>

  <!-- Stat cards -->
  <!-- Card 1: Devices -->
  <rect x="24" y="176" width="158" height="76" fill="#fff" rx="3" stroke="#ddd" stroke-width="1"/>
  <rect x="24" y="176" width="158" height="3" fill="#5cb85c" rx="2"/>
  <text x="34" y="210" fill="#5cb85c" font-size="22" font-weight="bold">3</text>
  <text x="34" y="242" fill="#888" font-size="10" letter-spacing="0.4">DEVICES ONLINE</text>

  <!-- Card 2: SSID -->
  <rect x="192" y="176" width="158" height="76" fill="#fff" rx="3" stroke="#ddd" stroke-width="1"/>
  <rect x="192" y="176" width="158" height="3" fill="#337ab7" rx="2"/>
  <text x="202" y="210" fill="#337ab7" font-size="13" font-weight="bold">HomeNet_Kids</text>
  <text x="202" y="242" fill="#888" font-size="10" letter-spacing="0.4">ACTIVE SSID</text>

  <!-- Card 3: DNS -->
  <rect x="360" y="176" width="158" height="76" fill="#fff" rx="3" stroke="#ddd" stroke-width="1"/>
  <rect x="360" y="176" width="158" height="3" fill="#f0ad4e" rx="2"/>
  <text x="370" y="210" fill="#f0ad4e" font-size="14" font-weight="bold">1.1.1.3</text>
  <text x="370" y="242" fill="#888" font-size="10" letter-spacing="0.4">DNS RESOLVER</text>

  <!-- Card 4: Schedule -->
  <rect x="528" y="176" width="158" height="76" fill="#fff" rx="3" stroke="#ddd" stroke-width="1"/>
  <rect x="528" y="176" width="158" height="3" fill="#9b59b6" rx="2"/>
  <text x="538" y="210" fill="#9b59b6" font-size="13" font-weight="bold">ON until 20:00</text>
  <text x="538" y="242" fill="#888" font-size="10" letter-spacing="0.4">SCHEDULE</text>

  <!-- Card 5: Internet Access -->
  <rect x="696" y="176" width="178" height="76" fill="#fff" rx="3" stroke="#ddd" stroke-width="1"/>
  <rect x="696" y="176" width="178" height="3" fill="#5cb85c" rx="2"/>
  <text x="706" y="210" fill="#5cb85c" font-size="14" font-weight="bold">Allowed</text>
  <text x="706" y="242" fill="#888" font-size="10" letter-spacing="0.4">INTERNET ACCESS</text>

  <!-- WiFi Settings section -->
  <rect x="10" y="284" width="880" height="168" fill="#fff" rx="3" stroke="#ddd" stroke-width="1"/>
  <text x="24" y="306" fill="#333" font-size="14" font-weight="bold">WiFi Settings</text>
  <text x="140" y="306" fill="#888" font-size="11">SSID, password, band</text>
  <rect x="10" y="312" width="880" height="1" fill="#eee"/>
  <!-- SSID field -->
  <text x="24" y="334" fill="#555" font-size="11" font-weight="600">SSID — Network Name</text>
  <rect x="24" y="340" width="380" height="28" rx="3" fill="#fff" stroke="#ccc" stroke-width="1"/>
  <text x="34" y="358" fill="#333" font-size="12">HomeNet_Kids</text>
  <text x="24" y="380" fill="#337ab7" font-size="11">↺ Use suggested name: HomeNet_Kids</text>
  <!-- Password field -->
  <text x="450" y="334" fill="#555" font-size="11" font-weight="600">Password</text>
  <rect x="450" y="340" width="380" height="28" rx="3" fill="#fff" stroke="#ccc" stroke-width="1"/>
  <text x="460" y="358" fill="#bbb" font-size="12">••••••••••••</text>
  <text x="450" y="380" fill="#888" font-size="11">Minimum 8 characters for WPA2-PSK encryption.</text>

  <!-- Band radio cards -->
  <text x="24" y="406" fill="#555" font-size="11" font-weight="600">Frequency Band</text>
  <!-- 2.4GHz selected -->
  <rect x="24" y="414" width="120" height="68" rx="3" fill="#f0f8ff" stroke="#337ab7" stroke-width="2"/>
  <text x="84" y="436" fill="#333" font-size="12" font-weight="600" text-anchor="middle">2.4 GHz</text>
  <text x="84" y="452" fill="#337ab7" font-size="10" text-anchor="middle" font-family="monospace">radio0</text>
  <text x="84" y="467" fill="#666" font-size="10" text-anchor="middle">Better range through walls.</text>
  <!-- 5GHz -->
  <rect x="154" y="414" width="120" height="68" rx="3" fill="#fff" stroke="#ddd" stroke-width="2"/>
  <text x="214" y="436" fill="#333" font-size="12" font-weight="600" text-anchor="middle">5 GHz</text>
  <text x="214" y="452" fill="#337ab7" font-size="10" text-anchor="middle" font-family="monospace">radio1</text>
  <text x="214" y="467" fill="#666" font-size="10" text-anchor="middle">Faster speeds, shorter range.</text>
  <!-- 6GHz -->
  <rect x="284" y="414" width="120" height="68" rx="3" fill="#fff" stroke="#ddd" stroke-width="2"/>
  <text x="344" y="436" fill="#333" font-size="12" font-weight="600" text-anchor="middle">6 GHz</text>
  <text x="344" y="452" fill="#337ab7" font-size="10" text-anchor="middle" font-family="monospace">radio2</text>
  <text x="344" y="467" fill="#666" font-size="10" text-anchor="middle">Ultra-fast Wi-Fi 6E/7.</text>
  <!-- All Bands -->
  <rect x="414" y="414" width="120" height="68" rx="3" fill="#fff" stroke="#ddd" stroke-width="2"/>
  <text x="474" y="436" fill="#333" font-size="12" font-weight="600" text-anchor="middle">All Bands</text>
  <text x="474" y="452" fill="#337ab7" font-size="10" text-anchor="middle" font-family="monospace">Sync All</text>
  <text x="474" y="467" fill="#666" font-size="10" text-anchor="middle">Unified SSID across all radios.</text>

  <!-- DNS & Content Filtering section -->
  <rect x="10" y="462" width="880" height="220" fill="#fff" rx="3" stroke="#ddd" stroke-width="1"/>
  <text x="24" y="484" fill="#333" font-size="14" font-weight="bold">DNS &amp; Content Filtering</text>
  <text x="206" y="484" fill="#888" font-size="11">DHCP Option 6 — zero overhead</text>
  <rect x="10" y="490" width="880" height="1" fill="#eee"/>
  <text x="24" y="510" fill="#555" font-size="11" font-weight="600">DNS Provider</text>

  <!-- DNS cards row 1 -->
  <!-- Cloudflare Family — selected -->
  <rect x="24" y="518" width="162" height="80" rx="3" fill="#f0f8ff" stroke="#337ab7" stroke-width="2"/>
  <rect x="30" y="524" width="52" height="14" rx="2" fill="none" stroke="#5cb85c" stroke-width="1"/>
  <text x="56" y="534" fill="#5cb85c" font-size="9" text-anchor="middle">FAMILY SAFE</text>
  <text x="34" y="550" fill="#333" font-size="11" font-weight="600">Cloudflare Family</text>
  <text x="34" y="564" fill="#337ab7" font-size="10" font-family="monospace">1.1.1.3 / 1.0.0.3</text>
  <text x="34" y="578" fill="#666" font-size="10">Blocks malware + adult content.</text>

  <!-- CleanBrowsing -->
  <rect x="196" y="518" width="162" height="80" rx="3" fill="#fff" stroke="#ddd" stroke-width="2"/>
  <rect x="202" y="524" width="38" height="14" rx="2" fill="none" stroke="#f0ad4e" stroke-width="1"/>
  <text x="221" y="534" fill="#f0ad4e" font-size="9" text-anchor="middle">STRICT</text>
  <text x="206" y="550" fill="#333" font-size="11" font-weight="600">CleanBrowsing</text>
  <text x="206" y="564" fill="#337ab7" font-size="10" font-family="monospace">185.228.168.9</text>
  <text x="206" y="578" fill="#666" font-size="10">Blocks adult content, proxies.</text>

  <!-- OpenDNS -->
  <rect x="368" y="518" width="162" height="80" rx="3" fill="#fff" stroke="#ddd" stroke-width="2"/>
  <rect x="374" y="524" width="52" height="14" rx="2" fill="none" stroke="#5cb85c" stroke-width="1"/>
  <text x="400" y="534" fill="#5cb85c" font-size="9" text-anchor="middle">FAMILY SAFE</text>
  <text x="378" y="550" fill="#333" font-size="11" font-weight="600">OpenDNS Family</text>
  <text x="378" y="564" fill="#337ab7" font-size="10" font-family="monospace">208.67.222.123</text>
  <text x="378" y="578" fill="#666" font-size="10">Cisco-backed. Blocks adult content.</text>

  <!-- Quad9 -->
  <rect x="540" y="518" width="150" height="80" rx="3" fill="#fff" stroke="#ddd" stroke-width="2"/>
  <rect x="546" y="524" width="60" height="14" rx="2" fill="none" stroke="#337ab7" stroke-width="1"/>
  <text x="576" y="534" fill="#337ab7" font-size="9" text-anchor="middle">MALWARE ONLY</text>
  <text x="550" y="550" fill="#333" font-size="11" font-weight="600">Quad9 Secure</text>
  <text x="550" y="564" fill="#337ab7" font-size="10" font-family="monospace">9.9.9.11</text>
  <text x="550" y="578" fill="#666" font-size="10">Blocks malware/phishing only.</text>

  <!-- DoH toggle row -->
  <rect x="24" y="606" width="852" height="1" fill="#f0f0f0"/>
  <text x="24" y="626" fill="#333" font-size="12" font-weight="600">Block DNS-over-HTTPS (DoH) bypass</text>
  <text x="24" y="641" fill="#888" font-size="11">Blocks known DoH providers so browsers cannot silently bypass the DNS filter</text>
  <rect x="848" y="618" width="36" height="20" rx="10" fill="#5cb85c"/>
  <circle cx="866" cy="628" r="8" fill="#fff"/>

  <!-- SafeSearch toggle row -->
  <rect x="24" y="654" width="852" height="1" fill="#f0f0f0"/>
  <text x="24" y="674" fill="#333" font-size="12" font-weight="600">SafeSearch enforcement</text>
  <text x="24" y="689" fill="#888" font-size="11">Forces SafeSearch on Google, Bing, YouTube and DuckDuckGo via DNS CNAME</text>
  <rect x="848" y="666" width="36" height="20" rx="10" fill="#5cb85c"/>
  <circle cx="866" cy="676" r="8" fill="#fff"/>

  <!-- Connected Devices section -->
  <rect x="10" y="694" width="880" height="136" fill="#fff" rx="3" stroke="#ddd" stroke-width="1"/>
  <text x="24" y="716" fill="#333" font-size="14" font-weight="bold">Connected Devices</text>
  <text x="170" y="716" fill="#888" font-size="11">3 online</text>
  <rect x="10" y="722" width="880" height="1" fill="#eee"/>

  <!-- Device rows -->
  <!-- Device 1 -->
  <rect x="24" y="730" width="852" height="34" rx="3" fill="#fff" stroke="#eee" stroke-width="1"/>
  <circle cx="38" cy="747" r="4" fill="#5cb85c"/>
  <text x="52" y="744" fill="#333" font-size="12" font-weight="600">Caitlin's iPad</text>
  <text x="52" y="758" fill="#888" font-size="10" font-family="monospace">a4:c3:f0:12:34:56</text>
  <text x="640" y="751" fill="#337ab7" font-size="10" font-family="monospace">172.28.28.101</text>
  <text x="730" y="751" fill="#888" font-size="10">exp 47m</text>
  <rect x="800" y="734" width="60" height="22" rx="3" fill="#f5f5f5" stroke="#ddd" stroke-width="1"/>
  <text x="830" y="749" fill="#333" font-size="11" text-anchor="middle">Block</text>

  <!-- Device 2 -->
  <rect x="24" y="770" width="852" height="34" rx="3" fill="#fff" stroke="#eee" stroke-width="1"/>
  <circle cx="38" cy="787" r="4" fill="#5cb85c"/>
  <text x="52" y="784" fill="#333" font-size="12" font-weight="600">Tom's Nintendo Switch</text>
  <text x="52" y="798" fill="#888" font-size="10" font-family="monospace">b8:27:eb:ab:cd:ef</text>
  <text x="640" y="791" fill="#337ab7" font-size="10" font-family="monospace">172.28.28.102</text>
  <text x="730" y="791" fill="#888" font-size="10">exp 51m</text>
  <rect x="800" y="774" width="60" height="22" rx="3" fill="#f5f5f5" stroke="#ddd" stroke-width="1"/>
  <text x="830" y="789" fill="#333" font-size="11" text-anchor="middle">Block</text>

  <!-- Grant extension button -->
  <rect x="24" y="812" width="160" height="28" rx="3" fill="#f5f5f5" stroke="#ddd" stroke-width="1"/>
  <text x="104" y="830" fill="#333" font-size="11" text-anchor="middle">⏱ Grant 1-hour extension</text>

  <!-- Save / Remove buttons -->
  <rect x="10" y="840" width="880" height="58" fill="#fff" rx="3" stroke="#ddd" stroke-width="1"/>
  <rect x="24" y="854" width="140" height="30" rx="3" fill="#337ab7"/>
  <text x="94" y="873" fill="#fff" font-size="12" font-weight="600" text-anchor="middle">Save &amp; Apply All</text>
  <rect x="174" y="854" width="150" height="30" rx="3" fill="#d9534f"/>
  <text x="249" y="873" fill="#fff" font-size="12" font-weight="600" text-anchor="middle">Remove Kids Network</text>

  <!-- Bottom label -->
  <text x="450" y="1010" fill="#aaa" font-size="10" text-anchor="middle">luci-app-parental-privacy-vlan v1.3.0 — VLAN mode</text>
</svg>
